<svg width="50" height="51" viewBox="0 0 50 51" fill="none" xmlns="http://www.w3.org/2000/svg">
<path fill-rule="evenodd" clip-rule="evenodd" d="M43.9707 14.7264L47.3316 11.3655C49.1082 9.58898 49.1082 6.70861 47.3316 4.93206L43.9707 1.57116C43.2094 0.809777 41.9749 0.809777 41.2135 1.57116C40.4522 2.33254 40.4522 3.56698 41.2135 4.32836L44.5744 7.68926C44.8282 7.94306 44.8282 8.35454 44.5744 8.60833L41.2135 11.9692C40.4522 12.7306 40.4522 13.9651 41.2135 14.7264C41.9749 15.4878 43.2094 15.4878 43.9707 14.7264ZM47.7912 44.5421V40.2634C47.7912 38.1375 46.4969 36.2258 44.523 35.4362L39.2352 33.3211C36.7247 32.3169 33.8635 33.4047 32.6542 35.8232L32.1941 36.7435C32.1941 36.7435 25.6953 35.4437 20.4962 30.2447C15.2972 25.0457 13.9974 18.5469 13.9974 18.5469L14.9177 18.0867C17.3362 16.8775 18.424 14.0163 17.4198 11.5057L15.3047 6.21792C14.5152 4.24407 12.6034 2.94976 10.4775 2.94976H6.19889C3.32754 2.94976 0.999849 5.27745 0.999849 8.1488C0.999849 31.1196 19.6214 49.7411 42.5921 49.7411C45.4635 49.7411 47.7912 47.4134 47.7912 44.5421ZM33.5727 14.7264C32.8113 15.4878 31.5768 15.4878 30.8155 14.7264C30.0541 13.9651 30.0541 12.7306 30.8155 11.9692L32.6863 10.0984H26.995C25.9183 10.0984 25.0454 9.22555 25.0454 8.1488C25.0454 7.07204 25.9183 6.19916 26.995 6.19916H32.6863L30.8155 4.32836C30.0541 3.56698 30.0541 2.33254 30.8155 1.57116C31.5768 0.809777 32.8113 0.809777 33.5727 1.57116L36.9336 4.93206C38.7101 6.70861 38.7101 9.58898 36.9336 11.3655L33.5727 14.7264Z" fill="black"/>
<path d="M43.9707 14.7264L44.3243 15.08L43.9707 14.7264ZM47.3316 4.93206L46.9781 5.28561L47.3316 4.93206ZM43.9707 1.57116L44.3243 1.2176V1.2176L43.9707 1.57116ZM41.2135 1.57116L41.5671 1.92471V1.92471L41.2135 1.57116ZM41.2135 4.32836L41.5671 3.97481V3.97481L41.2135 4.32836ZM44.5744 7.68926L44.2209 8.04282L44.5744 7.68926ZM44.5744 8.60833L44.928 8.96188L44.5744 8.60833ZM41.2135 11.9692L41.5671 12.3228L41.2135 11.9692ZM41.2135 14.7264L41.5671 14.3729V14.3729L41.2135 14.7264ZM44.523 35.4362L44.3373 35.9005L44.523 35.4362ZM39.2352 33.3211L39.4209 32.8569L39.2352 33.3211ZM32.6542 35.8232L33.1014 36.0468L32.6542 35.8232ZM32.1941 36.7435L32.096 37.2338C32.3171 37.278 32.5404 37.1688 32.6413 36.9671L32.1941 36.7435ZM20.4962 30.2447L20.8498 29.8911L20.4962 30.2447ZM13.9974 18.5469L13.7738 18.0997C13.5722 18.2005 13.4629 18.4238 13.5071 18.6449L13.9974 18.5469ZM14.9177 18.0867L15.1413 18.5339H15.1413L14.9177 18.0867ZM17.4198 11.5057L17.8841 11.32L17.4198 11.5057ZM15.3047 6.21792L15.7689 6.03223L15.3047 6.21792ZM30.8155 14.7264L31.169 14.3729V14.3729L30.8155 14.7264ZM33.5727 14.7264L33.2191 14.3729V14.3729L33.5727 14.7264ZM30.8155 11.9692L31.169 12.3228L30.8155 11.9692ZM32.6863 10.0984L33.0398 10.452C33.1828 10.309 33.2256 10.0939 33.1482 9.90709C33.0708 9.72026 32.8885 9.59844 32.6863 9.59844V10.0984ZM32.6863 6.19916V6.69916C32.8885 6.69916 33.0708 6.57734 33.1482 6.3905C33.2256 6.20366 33.1828 5.9886 33.0398 5.8456L32.6863 6.19916ZM30.8155 4.32836L30.4619 4.68192L30.8155 4.32836ZM30.8155 1.57116L30.4619 1.2176V1.2176L30.8155 1.57116ZM33.5727 1.57116L33.9262 1.2176V1.2176L33.5727 1.57116ZM36.9336 4.93206L37.2871 4.5785V4.5785L36.9336 4.93206ZM46.9781 11.012L43.6172 14.3729L44.3243 15.08L47.6852 11.7191L46.9781 11.012ZM46.9781 5.28561C48.5594 6.8669 48.5594 9.43069 46.9781 11.012L47.6852 11.7191C49.657 9.74727 49.657 6.55032 47.6852 4.5785L46.9781 5.28561ZM43.6172 1.92471L46.9781 5.28561L47.6852 4.5785L44.3243 1.2176L43.6172 1.92471ZM41.5671 1.92471C42.1332 1.35859 43.0511 1.35859 43.6172 1.92471L44.3243 1.2176C43.3677 0.260962 41.8166 0.26096 40.86 1.2176L41.5671 1.92471ZM41.5671 3.97481C41.001 3.40869 41.001 2.49083 41.5671 1.92471L40.86 1.2176C39.9033 2.17425 39.9033 3.72527 40.86 4.68192L41.5671 3.97481ZM44.928 7.33571L41.5671 3.97481L40.86 4.68192L44.2209 8.04282L44.928 7.33571ZM44.928 8.96188C45.377 8.51283 45.377 7.78476 44.928 7.33571L44.2209 8.04282C44.2794 8.10135 44.2794 8.19625 44.2209 8.25478L44.928 8.96188ZM41.5671 12.3228L44.928 8.96188L44.2209 8.25478L40.86 11.6157L41.5671 12.3228ZM41.5671 14.3729C41.001 13.8068 41.001 12.8889 41.5671 12.3228L40.86 11.6157C39.9033 12.5723 39.9033 14.1233 40.86 15.08L41.5671 14.3729ZM43.6172 14.3729C43.0511 14.939 42.1332 14.939 41.5671 14.3729L40.86 15.08C41.8166 16.0366 43.3677 16.0366 44.3243 15.08L43.6172 14.3729ZM47.2912 40.2634V44.5421H48.2912V40.2634H47.2912ZM44.3373 35.9005C46.1213 36.6141 47.2912 38.342 47.2912 40.2634H48.2912C48.2912 37.9331 46.8724 35.8375 44.7087 34.972L44.3373 35.9005ZM39.0495 33.7854L44.3373 35.9005L44.7087 34.972L39.4209 32.8569L39.0495 33.7854ZM33.1014 36.0468C34.1944 33.8609 36.7804 32.8777 39.0495 33.7854L39.4209 32.8569C36.6689 31.7561 33.5325 32.9485 32.207 35.5996L33.1014 36.0468ZM32.6413 36.9671L33.1014 36.0468L32.207 35.5996L31.7469 36.5199L32.6413 36.9671ZM20.1427 30.5983C22.7998 33.2554 25.7838 34.9116 28.0978 35.9033C29.256 36.3997 30.2498 36.7311 30.9563 36.9389C31.3097 37.0428 31.5915 37.1159 31.7865 37.1633C31.884 37.187 31.9598 37.2043 32.012 37.2159C32.0381 37.2216 32.0583 37.226 32.0724 37.2289C32.0795 37.2304 32.085 37.2315 32.0889 37.2323C32.0909 37.2327 32.0925 37.2331 32.0936 37.2333C32.0942 37.2334 32.0947 37.2335 32.0951 37.2336C32.0953 37.2337 32.0955 37.2337 32.0956 37.2337C32.0958 37.2338 32.096 37.2338 32.1941 36.7435C32.2921 36.2532 32.2922 36.2532 32.2923 36.2533C32.2923 36.2533 32.2924 36.2533 32.2924 36.2533C32.2924 36.2533 32.2923 36.2532 32.2921 36.2532C32.2917 36.2531 32.2909 36.253 32.2898 36.2527C32.2874 36.2522 32.2835 36.2514 32.2781 36.2503C32.2673 36.248 32.2504 36.2444 32.2276 36.2394C32.1821 36.2293 32.1132 36.2136 32.0228 36.1917C31.8421 36.1477 31.5756 36.0787 31.2385 35.9795C30.564 35.7811 29.6082 35.4626 28.4918 34.9842C26.2566 34.0262 23.3917 32.4331 20.8498 29.8911L20.1427 30.5983ZM13.9974 18.5469C13.5071 18.6449 13.5072 18.6451 13.5072 18.6453C13.5072 18.6454 13.5073 18.6456 13.5073 18.6458C13.5074 18.6462 13.5075 18.6467 13.5076 18.6473C13.5079 18.6485 13.5082 18.6501 13.5086 18.652C13.5094 18.656 13.5105 18.6615 13.512 18.6685C13.515 18.6826 13.5193 18.7028 13.5251 18.7289C13.5366 18.7811 13.5539 18.8569 13.5776 18.9544C13.625 19.1494 13.6981 19.4313 13.8021 19.7846C14.0099 20.4911 14.3413 21.485 14.8376 22.6431C15.8293 24.9571 17.4856 27.9411 20.1427 30.5983L20.8498 29.8911C18.3079 27.3492 16.7147 24.4843 15.7568 22.2492C15.2783 21.1328 14.9598 20.1769 14.7614 19.5025C14.6623 19.1653 14.5932 18.8988 14.5493 18.7181C14.5273 18.6277 14.5116 18.5588 14.5015 18.5133C14.4965 18.4906 14.4929 18.4737 14.4906 18.4628C14.4895 18.4574 14.4887 18.4535 14.4882 18.4512C14.488 18.45 14.4878 18.4492 14.4877 18.4488C14.4877 18.4486 14.4877 18.4485 14.4877 18.4485L14.4877 18.4486C14.4877 18.4487 14.4877 18.4488 13.9974 18.5469ZM14.6941 17.6395L13.7738 18.0997L14.221 18.9941L15.1413 18.5339L14.6941 17.6395ZM16.9556 11.6914C17.8632 13.9605 16.88 16.5466 14.6941 17.6395L15.1413 18.5339C17.7924 17.2084 18.9849 14.072 17.8841 11.32L16.9556 11.6914ZM14.8405 6.40362L16.9556 11.6914L17.8841 11.32L15.7689 6.03223L14.8405 6.40362ZM10.4775 3.44976C12.399 3.44976 14.1269 4.61959 14.8405 6.40362L15.7689 6.03223C14.9035 3.86854 12.8079 2.44976 10.4775 2.44976V3.44976ZM6.19889 3.44976H10.4775V2.44976H6.19889V3.44976ZM1.49985 8.1488C1.49985 5.55359 3.60368 3.44976 6.19889 3.44976V2.44976C3.0514 2.44976 0.499849 5.00131 0.499849 8.1488H1.49985ZM42.5921 49.2411C19.8975 49.2411 1.49985 30.8434 1.49985 8.1488H0.499849C0.499849 31.3957 19.3452 50.2411 42.5921 50.2411V49.2411ZM47.2912 44.5421C47.2912 47.1373 45.1874 49.2411 42.5921 49.2411V50.2411C45.7396 50.2411 48.2912 47.6895 48.2912 44.5421H47.2912ZM30.4619 15.08C31.4186 16.0366 32.9696 16.0366 33.9262 15.08L33.2191 14.3729C32.653 14.939 31.7351 14.939 31.169 14.3729L30.4619 15.08ZM30.4619 11.6157C29.5053 12.5723 29.5053 14.1233 30.4619 15.08L31.169 14.3729C30.6029 13.8068 30.6029 12.8889 31.169 12.3228L30.4619 11.6157ZM32.3327 9.74488L30.4619 11.6157L31.169 12.3228L33.0398 10.452L32.3327 9.74488ZM26.995 10.5984H32.6863V9.59844H26.995V10.5984ZM24.5454 8.1488C24.5454 9.50169 25.6421 10.5984 26.995 10.5984V9.59844C26.1944 9.59844 25.5454 8.94941 25.5454 8.1488H24.5454ZM26.995 5.69916C25.6421 5.69916 24.5454 6.7959 24.5454 8.1488H25.5454C25.5454 7.34818 26.1944 6.69916 26.995 6.69916V5.69916ZM32.6863 5.69916H26.995V6.69916H32.6863V5.69916ZM30.4619 4.68192L32.3327 6.55271L33.0398 5.8456L31.169 3.97481L30.4619 4.68192ZM30.4619 1.2176C29.5053 2.17425 29.5053 3.72527 30.4619 4.68192L31.169 3.97481C30.6029 3.40869 30.6029 2.49083 31.169 1.92471L30.4619 1.2176ZM33.9262 1.2176C32.9696 0.260961 31.4186 0.260961 30.4619 1.2176L31.169 1.92471C31.7351 1.35859 32.653 1.35859 33.2191 1.92471L33.9262 1.2176ZM37.2871 4.5785L33.9262 1.2176L33.2191 1.92471L36.58 5.28561L37.2871 4.5785ZM37.2871 11.7191C39.2589 9.74727 39.2589 6.55032 37.2871 4.5785L36.58 5.28561C38.1613 6.8669 38.1613 9.43069 36.58 11.012L37.2871 11.7191ZM33.9262 15.08L37.2871 11.7191L36.58 11.012L33.2191 14.3729L33.9262 15.08Z" fill="black"/>
</svg>
